/* XPM */
static char * lambda_30_xpm[] = {
"42 30 4 1",
" 	c None",
".	c #ad2000",
"+	c #ff6c00",
"@	c #fec613",
/* ".	c #453A62", */
/* "+	c #5E5086", */
/* "@	c #8F4E8B", */
"........  ++++++++                        ",
" ........  ++++++++                       ",
" ........  ++++++++                       ",
"  ........  ++++++++                      ",
"   ........  ++++++++                     ",
"   ........  ++++++++                     ",
"    ........  ++++++++                    ",
"     ........  ++++++++                   ",
"     ........  ++++++++   @@@@@@@@@@@@@@@@",
"      ........  ++++++++  @@@@@@@@@@@@@@@@",
"       ........  ++++++++  @@@@@@@@@@@@@@@",
"       ........  ++++++++  @@@@@@@@@@@@@@@",
"        ........  ++++++++  @@@@@@@@@@@@@@",
"         ........  ++++++++  @@@@@@@@@@@@@",
"         ........  ++++++++               ",
"         ........  +++++++++              ",
"         ........  ++++++++++ @@@@@@@@@@@@",
"        ........  +++++++++++  @@@@@@@@@@@",
"       ........  +++++++++++++  @@@@@@@@@@",
"       ........  ++++++++++++++ @@@@@@@@@@",
"      ........  +++++++++++++++  @@@@@@@@@",
"     ........  ++++++++ ++++++++          ",
"     ........  ++++++++ ++++++++          ",
"    ........  ++++++++   ++++++++         ",
"   ........  ++++++++     ++++++++        ",
"   ........  ++++++++     ++++++++        ",
"  ........  ++++++++       ++++++++       ",
" ........  ++++++++         ++++++++      ",
" ........  ++++++++         ++++++++      ",
"........  ++++++++           ++++++++     "};
